# xmcd
#
# Track frame offsets: 
#        150
#        70985
#        103752
#        165052
#
# Disc length: 2710 seconds
#
# Revision: 1
# Processed by: cddbd v1.5.2PL0 Copyright (c) Steve Scherf et al.
# Submitted via: ExactAudioCopy v0.95b3
#
DISCID=280a9404
DTITLE=Art Blakey and The Jazz Messengers - Au Club Saint-Germain Vol. 1
DTITLE=(Remaster)
DYEAR=1959
DGENRE=Jazz
TTITLE0=Poitely (Live)
TTITLE1=Whisper Not (Live)
TTITLE2=Now's The Time (Live)
TTITLE3=The First Theme (Live)
EXTD=
EXTT0=
EXTT1=
EXTT2=
EXTT3=
PLAYORDER=
